Coordinates
version=1
nRows=41
nColumns=38
inDegrees=no

Units are S.I. units (second, meters, Newtons, ...)
If the header above contains a line with 'inDegrees', this indicates whether rotational values are in degrees (yes) or radians (no).

endheader
time	pelvis_tilt	pelvis_list	pelvis_rotation	pelvis_tx	pelvis_ty	pelvis_tz	hip_flexion_r	hip_adduction_r	hip_rotation_r	knee_angle_r	ankle_angle_r	subtalar_angle_r	mtp_angle_r	hip_flexion_l	hip_adduction_l	hip_rotation_l	knee_angle_l	ankle_angle_l	subtalar_angle_l	mtp_angle_l	lumbar_extension	lumbar_bending	lumbar_rotation	arm_flex_r	arm_add_r	arm_rot_r	elbow_flex_r	pro_sup_r	wrist_flex_r	wrist_dev_r	arm_flex_l	arm_add_l	arm_rot_l	elbow_flex_l	pro_sup_l	wrist_flex_l	wrist_dev_l
30	2.15818	1.51329	-0.789684	-0.946026	0.752591	0.865111	-0.357696	0.0682811	-0.0645167	0.39373	-0.231374	0	0	0.465283	-0.208665	-0.592296	0.444612	-0.412215	0	0	-0.163633	0.185494	0.0180656	0.0604176	-0.573685	0.500898	1.03492	0.968982	0	0	0.30042	-0.432166	1.44431	0.713962	0	0	0
30.01	1.78378	1.47773	-0.402762	-0.944529	0.763585	0.860655	-0.360068	0.122115	-0.0139694	0.396964	-0.26386	0	0	0.358446	-0.130273	0.0150684	0.141422	-0.374265	0	0	-0.158569	0.221773	0.00776652	0.0494107	-0.580961	0.502221	1.03717	0.948095	0	0	-0.15063	-0.164372	-0.03497	0.881706	0	0	0
30.02	3.06662	1.5199	-1.679	-0.947732	0.771541	0.869771	-0.318287	0.0101774	-0.0668757	0.551716	-0.248769	0	0	0.368051	-0.0324918	0.0974828	0.194789	-0.491295	0	0	-0.190094	0.12265	-0.027015	0.0947036	-0.542859	0.536033	0.961026	0.947775	0	0	0.361495	-0.505623	1.5708	0.574822	1.5708	0	0
30.03	2.08575	1.55684	-0.713449	-0.944074	0.783764	0.86662	-0.236318	0.024311	-0.021776	0.653279	-0.247101	0	0	0.424944	-0.0492097	0.0840005	0.251986	-0.465741	0	0	-0.138566	0.138056	-0.0154596	0.087241	-0.529101	0.536902	0.918021	0.948176	0	0	0.357014	-0.473807	1.5708	0.54541	1.5708	0	0
30.04	-0.505784	1.51481	1.79544	-0.935663	0.799293	0.862323	-0.0963031	-0.0245849	0.047144	0.834903	-0.256231	0	0	0.46225	-0.0549758	-0.0460999	0.249895	-0.44131	0	0	-0.0570704	0.107861	0.0606504	0.0502917	-0.520753	0.527965	0.885608	0.944327	0	0	0.335715	-0.454832	1.5708	0.587318	1.5708	0	0
30.05	-0.565049	1.51921	1.85247	-0.934142	0.812093	0.864215	-0.0815935	-0.0326568	0.0471718	0.885256	-0.30563	0	0	0.432373	-0.0383653	-0.0261643	0.232451	-0.412975	0	0	-0.0604954	0.106321	0.0579162	0.0386742	-0.516501	0.522669	0.869028	0.934245	0	0	0.3364	-0.447866	1.56861	0.596612	1.5708	0	0
30.06	-0.676035	1.52173	1.95913	-0.932343	0.82423	0.86584	-0.0664078	-0.0444991	0.0494812	0.927856	-0.360955	0	0	0.423296	-0.0357266	-0.0255742	0.257394	-0.387843	0	0	-0.0649213	0.102059	0.0500314	0.0354559	-0.512124	0.528963	0.852353	0.922663	0	0	0.338042	-0.450961	1.5708	0.593032	1.5708	0	0
30.07	-0.819351	1.51811	2.09817	-0.930885	0.836156	0.867275	-0.0317674	-0.0661189	0.0299653	0.986301	-0.410573	0	0	0.405324	-0.026815	-0.0133376	0.255931	-0.371819	0	0	-0.063157	0.0942128	0.045091	0.0286501	-0.50846	0.533533	0.835477	0.911367	0	0	0.333474	-0.444595	1.5708	0.569365	1.5708	0	0
30.08	-1.08508	1.5206	2.3539	-0.928449	0.84683	0.868387	-0.000493748	-0.0788473	0.041546	1.07285	-0.477413	0	0	0.382229	-0.0141324	-0.0405191	0.259229	-0.34594	0	0	-0.0757165	0.0724526	0.0483754	0.0297996	-0.50314	0.553909	0.813707	0.883907	0	0	0.282688	-0.494176	1.37832	0.650865	1.5708	0	0
30.09	0.0869402	1.48545	1.164	-0.920865	0.856214	0.860237	0.0930879	0.0243132	0.0954424	1.16293	-0.485395	0	0	0.450876	-0.079196	-0.0416408	0.333726	-0.23859	0	0	-0.0244056	0.142258	0.0428869	0.0226242	-0.517241	0.584802	0.828742	0.861465	0	0	0.364711	-0.514981	1.5708	0.691161	1.5708	0	0
30.1	0.0622217	1.48781	1.17511	-0.917669	0.867807	0.862499	0.127945	0.0176383	0.0963271	1.21691	-0.515375	0	0	0.402189	-0.0721704	-0.131517	0.270875	-0.240705	0	0	-0.0203647	0.144383	0.0598683	-0.000987293	-0.518033	0.572777	0.820951	0.846958	0	0	0.353177	-0.474735	1.5708	0.617979	1.5708	0	0
30.11	-1.45516	1.50829	2.69432	-0.920758	0.879599	0.874521	0.111124	-0.128061	0.0157591	1.26577	-0.545194	0	0	0.302378	0.00636311	-0.0536738	0.219616	-0.308658	0	0	-0.0870961	0.0488617	0.0276566	0.0450844	-0.493405	0.62831	0.759548	0.827208	0	0	0.376025	-0.485345	1.5708	0.613162	1.5708	0	0
30.12	-1.65457	1.50871	2.88622	-0.918271	0.891541	0.877487	0.140474	-0.153031	-0.0744266	1.33638	-0.554648	0	0	0.267171	0.0136451	-0.0876221	0.206192	-0.293685	0	0	-0.0947289	0.0485926	0.029281	0.0329822	-0.495352	0.630463	0.753391	0.817199	0	0	0.370916	-0.463787	1.5708	0.571413	1.5708	0	0
30.13	-0.00193739	1.51193	1.20559	-0.909076	0.900022	0.869929	0.22029	-0.0224193	0.0198403	1.39479	-0.55301	0	0	0.283312	-0.061419	-0.202104	0.180831	-0.220352	0	0	-0.0440273	0.131812	0.0510405	0.00752792	-0.516181	0.63958	0.781475	0.799094	0	0	0.370225	-0.473543	1.5708	0.595397	1.5708	0	0
30.14	0.20495	1.52523	0.992399	-0.907052	0.911383	0.874084	0.228772	-0.0375964	-0.0616142	1.41599	-0.503738	0	0	0.238906	-0.0688596	-0.193281	0.164189	-0.219787	0	0	-0.0626969	0.138514	0.0433175	0.00997253	-0.519105	0.65677	0.772893	0.791174	0	0	0.372813	-0.470811	1.5708	0.588712	1.5708	0	0
30.15	0.820086	1.47177	0.451192	-0.911661	0.917597	0.872127	0.259622	0.0184665	-0.152132	1.44121	-0.479549	0	0	0.464818	-0.403757	-0.698132	0.811145	-0.283109	0	0	-0.0636402	0.218191	-0.0458697	0.0208802	-0.542985	0.676274	0.807549	0.766628	0	0	0.394436	-0.484108	1.5708	0.614219	1.5708	0	0
30.16	0.675676	1.47584	0.538885	-0.90464	0.927501	0.872985	0.306664	0.0329032	-0.0283559	1.48333	-0.469515	0	0	0.227572	-0.144139	-0.166348	0.159938	-0.169628	0	0	-0.0588927	0.196887	-0.00382101	0.0252097	-0.540519	0.715012	0.786102	0.749891	0	0	0.393994	-0.526129	1.5708	0.684892	1.5708	0	0
30.17	0.660553	1.47035	0.535844	-0.899668	0.937262	0.876377	0.343147	0.0430107	-0.0201669	1.49982	-0.464284	0	0	0.232746	-0.138767	-0.121357	0.192187	-0.156261	0	0	-0.0531976	0.208097	0.00116936	0.0201115	-0.538746	0.720017	0.777269	0.747998	0	0	0.391536	-0.483605	1.5708	0.605299	1.5708	0	0
30.18	0.746969	1.47008	0.447335	-0.898643	0.94894	0.87826	0.375101	0.0180875	-0.111224	1.52369	-0.454648	0	0	0.220905	-0.142062	-0.180986	0.209902	-0.152062	0	0	-0.0584921	0.2184	-0.0127444	0.0168277	-0.551497	0.733746	0.787772	0.74236	0	0	0.393853	-0.48342	1.5708	0.60905	1.5708	0	0
30.19	0.699202	1.45839	0.481301	-0.894122	0.95723	0.879595	0.412184	0.0502747	-0.0343167	1.53096	-0.467357	0	0	0.171131	-0.135686	-0.217713	0.118886	-0.171029	0	0	-0.0515222	0.228982	-0.0201648	0.0233895	-0.550427	0.751745	0.782729	0.742392	0	0	0.392641	-0.484753	1.5708	0.602082	1.5708	0	0
30.2	0.674735	1.51254	0.485767	-0.892139	0.9694	0.88669	0.411133	-0.0127485	-0.0145793	1.53187	-0.466244	0	0	0.0603746	-0.0828746	-0.110541	0	-0.240265	0	0	-0.0790295	0.179988	-0.0195132	0.0355019	-0.538286	0.774898	0.753735	0.738842	0	0	0.391121	-0.479794	1.5708	0.58366	1.5708	0	0
30.21	0.835877	1.51099	0.328494	-0.890244	0.979164	0.888196	0.429684	-0.0116554	-0.0258489	1.53162	-0.470503	0	0	0.0436668	-0.0904334	-0.0663479	0	-0.178307	0	0	-0.0872093	0.186851	-0.0327932	0.0309334	-0.542944	0.775496	0.760424	0.733776	0	0	0.395689	-0.496704	1.5708	0.613724	1.5708	0	0
30.22	0.709348	1.49401	0.445251	-0.88657	0.987677	0.888435	0.475817	0.0126776	-0.0170553	1.52578	-0.461397	0	0	0.0801537	-0.0844847	-0.254035	0.0510036	-0.161853	0	0	-0.0703658	0.201495	-0.0324152	0.0264346	-0.545196	0.78257	0.756896	0.724519	0	0	0.407326	-0.487361	1.5708	0.600982	1.5708	0	0
30.23	0.762381	1.49689	0.389288	-0.884014	0.996927	0.890463	0.495279	0.00946422	-0.0209667	1.51521	-0.439552	0	0	0.0486524	-0.0919791	-0.189384	0.0403619	-0.212282	0	0	-0.0777697	0.204188	-0.0456332	0.03086	-0.545702	0.789955	0.755825	0.719657	0	0	0.413001	-0.489042	1.5708	0.600059	1.5708	0	0
30.24	0.836711	1.49235	0.316697	-0.882048	1.00683	0.891182	0.525541	-0.00222078	-0.100064	1.50052	-0.438736	0	0	0.0341959	-0.0862365	-0.242456	0.0397972	-0.197999	0	0	-0.0790675	0.212691	-0.0521823	0.0212164	-0.551439	0.784037	0.761396	0.711767	0	0	0.420054	-0.496866	1.5708	0.616107	1.5708	0	0
30.25	0.750602	1.4843	0.385719	-0.877329	1.01483	0.890604	0.551235	0.0330065	-0.0132958	1.49361	-0.392376	0	0	-0.00508198	-0.0990932	-0.14249	0	-0.166412	0	0	-0.0695947	0.219549	-0.0408228	0.0115977	-0.555165	0.780562	0.765824	0.695256	0	0	0.413021	-0.496777	1.56354	0.619678	1.56367	0	0
30.26	0.810982	1.4855	0.321047	-0.875666	1.02372	0.890345	0.570653	0.030754	-0.0133564	1.48413	-0.372917	0	0	-0.0396391	-0.117103	-0.133407	0	-0.141826	0	0	-0.0872877	0.217028	-0.0795183	0.0545097	-0.554417	0.837798	0.758944	0.689477	0	0	0.451082	-0.568708	1.5708	0.73375	1.5708	0	0
30.27	0.912013	1.47547	0.21251	-0.870597	1.03222	0.891597	0.579673	0.053564	-0.00944001	1.45607	-0.351962	0	0	0.0683466	-0.12533	-0.275782	0.180395	-0.0749942	0	0	-0.0885504	0.229878	-0.0567249	0.0243887	-0.554264	0.800236	0.759518	0.684142	0	0	0.452532	-0.54268	1.5708	0.698618	1.5708	0	0
30.28	0.881578	1.46936	0.240871	-0.867998	1.04152	0.890582	0.60347	0.0560649	-0.0140608	1.43618	-0.331544	0	0	0.031951	-0.109876	-0.366045	0.111729	-0.0695811	0	0	-0.0823834	0.238326	-0.0633645	0.0186651	-0.558869	0.796368	0.762872	0.678043	0	0	0.462093	-0.548086	1.5708	0.714007	1.5708	0	0
30.29	0.928011	1.469	0.188433	-0.864343	1.05046	0.891209	0.61308	0.0590795	-0.0118413	1.40724	-0.315577	0	0	0.00883429	-0.124315	-0.274013	0.130274	-0.114243	0	0	-0.0884256	0.241114	-0.0665942	0.0184732	-0.556386	0.79427	0.756317	0.676066	0	0	0.470194	-0.5559	1.5708	0.729066	1.5708	0	0
30.3	0.847156	1.47618	0.266974	-0.86241	1.06043	0.892266	0.630703	0.0427966	-0.0109674	1.37121	-0.306746	0	0	-0.11848	-0.1158	-0.0857741	0	-0.243163	0	0	-0.0803356	0.245438	-0.0826276	0.0195647	-0.557041	0.786883	0.750506	0.687549	0	0	0.472897	-0.524934	1.5708	0.677691	1.5708	0	0
30.31	0.859993	1.47832	0.251276	-0.859493	1.06946	0.892079	0.640396	0.0374996	-0.0113938	1.33616	-0.301509	0	0	-0.139355	-0.10885	-0.136996	0	-0.24657	0	0	-0.082445	0.246984	-0.0894093	0.0196215	-0.554722	0.781917	0.743108	0.688345	0	0	0.482385	-0.528183	1.5708	0.687212	1.5708	0	0
30.32	1.67397	1.53729	-0.561614	-0.861208	1.08055	0.900654	0.600511	-0.0513807	-0.00772204	1.28912	-0.302542	0	0	-0.168574	-0.0363484	-0.216188	0	-0.24612	0	0	-0.133954	0.191193	-0.100787	0.0368309	-0.539595	0.783584	0.70914	0.68814	0	0	0.495102	-0.515432	1.5708	0.666041	1.5708	0	0
30.33	1.70337	1.53861	-0.595553	-0.858069	1.08988	0.899743	0.609115	-0.0559375	-0.0091783	1.24714	-0.296347	0	0	-0.196774	-0.0254615	-0.245845	0	-0.344417	0	0	-0.134264	0.192502	-0.10179	0.019771	-0.533053	0.732226	0.706323	0.758158	0	0	0.508373	-0.518054	1.5708	0.680603	1.5708	0	0
30.34	1.79582	1.53729	-0.693318	-0.8544	1.0987	0.899028	0.612044	-0.0573516	-0.0120953	1.1987	-0.29457	0	0	-0.163568	-0.0153183	-0.273407	0	-0.302881	0	0	-0.135407	0.190853	-0.0994691	0.028397	-0.53941	0.774771	0.700397	0.671494	0	0	0.504662	-0.519754	1.53714	0.688768	1.5708	0	0
30.35	1.87649	1.53564	-0.775143	-0.851168	1.10791	0.898533	0.614917	-0.0667265	-0.0579018	1.14128	-0.305011	0	0	-0.189357	-0.0255598	-0.262582	0	-0.291102	0	0	-0.138512	0.193533	-0.105724	0.0286357	-0.538765	0.77382	0.694878	0.668368	0	0	0.512395	-0.520755	1.52987	0.696766	1.5708	0	0
30.36	1.86076	1.53977	-0.762393	-0.847856	1.1174	0.897233	0.619586	-0.0737409	-0.0726872	1.07991	-0.305432	0	0	-0.195424	-0.0141184	-0.280596	0	-0.255229	0	0	-0.135892	0.197059	-0.119879	0.0328947	-0.538486	0.772147	0.692226	0.681178	0	0	0.535229	-0.526706	1.5708	0.712323	1.5708	0	0
30.37	1.95045	1.54362	-0.854141	-0.844237	1.12611	0.89573	0.619452	-0.0791427	-0.0714326	1.01821	-0.297597	0	0	-0.21755	-0.0119287	-0.27448	0	-0.248922	0	0	-0.134344	0.193028	-0.120745	0.0295728	-0.53678	0.770198	0.687513	0.666463	0	0	0.504825	-0.531837	1.45031	0.728449	1.5708	0	0
30.38	1.65439	1.5549	-0.563477	-0.840312	1.13562	0.89412	0.625388	-0.0825489	-0.0641911	0.947555	-0.288869	0	0	-0.214285	0.00390672	-0.300003	0	-0.242913	0	0	-0.116777	0.199769	-0.125777	0.0228542	-0.540376	0.759367	0.689917	0.668276	0	0	0.509107	-0.544554	1.5708	0.792045	0.849185	0	0
30.39	1.21906	1.56272	-0.132031	-0.836608	1.14436	0.891995	0.626308	-0.0873604	-0.053187	0.87874	-0.273104	0	0	-0.22044	0.0226563	-0.311968	0	-0.288349	0	0	-0.108815	0.198117	-0.129126	0.0207874	-0.540077	0.755716	0.688505	0.659047	0	0	0.520163	-0.544528	1.5708	0.798099	0.846074	0	0
30.4	0.677376	1.56817	0.405798	-0.832502	1.15277	0.889528	0.620039	-0.0916776	-0.0382528	0.810963	-0.250521	0	0	-0.233231	0.0206378	-0.308735	0	-0.233954	0	0	-0.108385	0.189436	-0.128233	0.0200647	-0.535722	0.757344	0.681709	0.646975	0	0	0.572259	-0.524511	1.56713	0.741299	1.5708	0	0
